<?xml version="1.0" encoding="utf-8"?>
<!-- Generator: Adobe Illustrator 25.0.1, SVG Export Plug-In . SVG Version: 6.00 Build 0)  -->
<svg version="1.1" id="圖層_1" xmlns="http://www.w3.org/2000/svg" xmlns:xlink="http://www.w3.org/1999/xlink" x="0px" y="0px"
	 viewBox="0 0 30.3 42.8" style="enable-background:new 0 0 30.3 42.8;" xml:space="preserve">
<style type="text/css">
	.st0{fill:#EDE0D4;}
</style>
<path class="st0" d="M16.7,4.7c5.9,0,11,4.8,11,10.3c0,5.7-4.6,13.1-11,23.2c-6.4-10.2-11-17.6-11-23.2C5.6,9.5,10.8,4.7,16.7,4.7
	 M16.7,1C8.9,1,2,7.3,2,15c0,7.7,6.4,16.9,14.7,30.1C25,31.9,31.3,22.7,31.3,15C31.3,7.3,24.4,1,16.7,1z M16.7,21.2
	c-3,0-5.5-2.5-5.5-5.5s2.5-5.5,5.5-5.5s5.5,2.5,5.5,5.5S19.7,21.2,16.7,21.2z"/>
</svg>
