<?xml version="1.0" encoding="utf-8"?>
<!-- Generator: Adobe Illustrator 25.0.1, SVG Export Plug-In . SVG Version: 6.00 Build 0)  -->
<svg version="1.1" id="圖層_1" xmlns="http://www.w3.org/2000/svg" xmlns:xlink="http://www.w3.org/1999/xlink" x="0px" y="0px"
	 viewBox="0 0 37 49.1" style="enable-background:new 0 0 37 49.1;" xml:space="preserve">
<style type="text/css">
	.st0{fill-rule:evenodd;clip-rule:evenodd;fill:#EDE0D4;stroke:#EDE0D4;stroke-width:2.851;stroke-miterlimit:10;}
</style>
<path class="st0" d="M12,4.1L9,5.7c-11.1,6,5.4,41.8,17.9,41.8c0.9,0,1.7-0.2,2.5-0.6l3-1.5l-5.6-11.2l-3,1.5
	c-0.3,0.2-0.7,0.3-1.1,0.3c-4.9,0-13.2-16.4-8.2-19.2l3-1.5C17.6,15.3,12,4.1,12,4.1z M26.9,49.5C16,49.5,3.4,27.3,3.4,13.9
	C3.4,9,5,5.6,8.2,3.9l4.6-2.3l7.4,14.7l-4.7,2.4c-2.8,1.5,4.6,16.8,7.6,15.3l4.6-2.4L35,46.3c0,0-4.5,2.3-4.8,2.4
	C29.2,49.2,28.1,49.5,26.9,49.5"/>
</svg>
